<svg xmlns="http://www.w3.org/2000/svg" width="18.75" height="26.87" viewBox="0 0 18.75 26.87">
  <defs>
    <style>
      .cls-1 {
        fill: #72797f;
        <!-- fill-rule: evenodd; -->
      }
    </style>
  </defs>
  <path id="Next_hover_" data-name="Next (hover)" class="cls-1" d="M901.513,1028.92a2.615,2.615,0,0,1,0-4.03l12.209-10.76a3.563,3.563,0,0,1,4.578,0,2.625,2.625,0,0,1,0,4.04l-12.209,10.75A3.539,3.539,0,0,1,901.513,1028.92Zm-0.067-25.22a3.563,3.563,0,0,1,4.578,0l12.209,10.76a2.615,2.615,0,0,1,0,4.03,3.539,3.539,0,0,1-4.578,0l-12.209-10.75A2.625,2.625,0,0,1,901.446,1003.7Z" transform="translate(-900.5 -1002.88)"/>
</svg>
