<svg xmlns="http://www.w3.org/2000/svg" width="18.75" height="26.9" viewBox="0 0 18.75 26.9">
  <defs>
    <style>
      .cls-1 {
        fill: #72797f;
      }
    </style>
  </defs>
  <path id="Next_hover_" data-name="Next (hover)" class="cls-1" d="M918.237,1003.7a2.626,2.626,0,0,1,0,4.04l-12.209,10.75a3.539,3.539,0,0,1-4.578,0,2.614,2.614,0,0,1,0-4.03l12.209-10.76A3.563,3.563,0,0,1,918.237,1003.7Zm0.067,25.22a3.539,3.539,0,0,1-4.578,0l-12.209-10.75a2.626,2.626,0,0,1,0-4.04,3.563,3.563,0,0,1,4.578,0l12.209,10.76A2.614,2.614,0,0,1,918.3,1028.92Z" transform="translate(-900.5 -1002.88)"/>
</svg>
